<?xml version="1.0" encoding="utf-8"?>
<!-- Uploaded to: SVG Repo, www.svgrepo.com, Generator: SVG Repo Mixer Tools -->
<svg fill="#000000" width="800px" height="800px" viewBox="0 0 32 32" version="1.1" xmlns="http://www.w3.org/2000/svg">
<title>hashtag</title>
<path d="M30 20.75h-8.078l1.696-9.5h6.679c0.69 0 1.25-0.56 1.25-1.25s-0.56-1.25-1.25-1.25v0h-6.233l1.166-6.53c0.014-0.070 0.022-0.151 0.022-0.233 0-0.69-0.56-1.25-1.25-1.25-0.618 0-1.131 0.448-1.232 1.036l-0.001 0.007-1.245 6.97h-9.461l1.166-6.53c0.014-0.070 0.022-0.151 0.022-0.233 0-0.69-0.56-1.25-1.25-1.25-0.618 0-1.131 0.448-1.232 1.036l-0.001 0.007-1.245 6.97h-7.228c-0.69 0-1.25 0.56-1.25 1.25s0.56 1.25 1.25 1.25v0h6.782l-1.697 9.5h-5.382c-0.69 0-1.25 0.56-1.25 1.25s0.56 1.25 1.25 1.25v0h4.936l-1.166 6.529c-0.012 0.066-0.019 0.142-0.019 0.22 0 0.613 0.441 1.123 1.023 1.23l0.008 0.001c0.065 0.012 0.141 0.020 0.217 0.020 0.001 0 0.002 0 0.003 0h-0c0.612-0.001 1.121-0.441 1.228-1.022l0.001-0.008 1.245-6.971h9.46l-1.166 6.529c-0.012 0.066-0.020 0.143-0.020 0.221 0 0.69 0.56 1.25 1.25 1.25 0.612 0 1.122-0.44 1.229-1.022l0.001-0.008 1.245-6.971h8.525c0.69 0 1.25-0.56 1.25-1.25s-0.56-1.25-1.25-1.25v0zM9.922 20.75l1.696-9.5h9.461l-1.697 9.5z"></path>
</svg>